<svg width="13" height="13" viewBox="0 0 13 13" fill="none" xmlns="http://www.w3.org/2000/svg">
<path d="M6.5 0C2.92094 0 0 2.92119 0 6.5C0 10.0791 2.92119 13 6.5 13C10.0791 13 13 10.0788 13 6.5C13 2.92094 10.0788 0 6.5 0ZM10.9088 2.83131C11.7203 3.80479 12.2157 5.0502 12.237 6.40859C11.2199 6.17068 10.0902 6.15469 8.93979 6.36441C8.64043 6.419 8.34107 6.48832 8.0435 6.5716C7.94447 6.30221 7.83936 6.0351 7.72764 5.77053C7.61363 5.50063 7.49328 5.23529 7.36734 4.97377C8.73818 4.45021 10.2235 3.67072 10.9088 2.83131ZM6.5 0.761719C7.99348 0.761719 9.35518 1.33529 10.3771 2.27348C9.97852 2.81709 8.84254 3.60852 7.02 4.29102C6.38371 3.10629 5.62072 2.01754 4.73916 1.03848C5.2942 0.858965 5.88605 0.761719 6.5 0.761719ZM3.98506 1.34316C4.88414 2.30623 5.65754 3.38178 6.29459 4.54365C4.39842 5.15734 2.47863 5.4077 0.900098 5.24596C1.28451 3.52828 2.44105 2.09904 3.98506 1.34316ZM0.761719 6.5C0.761719 6.33141 0.76959 6.16459 0.783809 5.9998C1.13217 6.03662 1.49551 6.05516 1.87104 6.05516C3.35207 6.05516 5.01592 5.77027 6.6498 5.2292C6.89914 5.73955 7.12334 6.26463 7.32113 6.80266C6.68408 7.03168 6.06404 7.32291 5.48184 7.66949C4.05437 8.51932 3.01006 9.61264 2.57689 10.6836C1.46047 9.636 0.761719 8.14811 0.761719 6.5ZM6.5 12.2383C5.27389 12.2383 4.13639 11.8516 3.20277 11.1937C3.49223 10.2157 4.47129 9.15764 5.87158 8.32406C6.36492 8.03004 6.9418 7.75303 7.56971 7.52781C8.0148 8.92684 8.2875 10.4036 8.37408 11.9237C7.78654 12.1273 7.15609 12.2383 6.5 12.2383ZM9.11701 11.6061C9.01139 10.1253 8.73564 8.68359 8.29309 7.29879C9.52707 6.95957 10.8977 6.84582 12.1974 7.18301C11.9674 9.11295 10.776 10.7522 9.11701 11.6061Z" fill="white"/>
</svg>
