<svg width="15" height="15" viewBox="0 0 15 15" fill="none" xmlns="http://www.w3.org/2000/svg">
<path d="M10.0165 0.789474H4.98363C2.66766 0.789474 0.789551 2.66758 0.789551 4.98355V10.0164C0.789551 12.3324 2.66766 14.2105 4.98363 14.2105H10.0165C12.3325 14.2105 14.2106 12.3324 14.2106 10.0164V4.98355C14.2106 2.66758 12.3325 0.789474 10.0165 0.789474ZM12.9524 10.0164C12.9524 11.6354 11.6354 12.9523 10.0165 12.9523H4.98363C3.36472 12.9523 2.04777 11.6354 2.04777 10.0164V4.98355C2.04777 3.36464 3.36472 2.0477 4.98363 2.0477H10.0165C11.6354 2.0477 12.9524 3.36464 12.9524 4.98355V10.0164Z" fill="white"/>
<path d="M7.5 3.75C5.42906 3.75 3.75 5.42906 3.75 7.5C3.75 9.57094 5.42906 11.25 7.5 11.25C9.57094 11.25 11.25 9.57094 11.25 7.5C11.25 5.42906 9.57094 3.75 7.5 3.75ZM7.5 9.84375C6.20812 9.84375 5.15625 8.79187 5.15625 7.5C5.15625 6.20719 6.20812 5.15625 7.5 5.15625C8.79187 5.15625 9.84375 6.20719 9.84375 7.5C9.84375 8.79187 8.79187 9.84375 7.5 9.84375Z" fill="white"/>
<path d="M11.5312 4.75793C11.8071 4.75793 12.0309 4.53422 12.0309 4.25825C12.0309 3.98227 11.8071 3.75856 11.5312 3.75856C11.2552 3.75856 11.0315 3.98227 11.0315 4.25825C11.0315 4.53422 11.2552 4.75793 11.5312 4.75793Z" fill="white"/>
</svg>
