<svg width="15" height="12" viewBox="0 0 15 12" fill="none" xmlns="http://www.w3.org/2000/svg">
<path d="M15 1.40192C14.4422 1.63968 13.8478 1.79727 13.2281 1.87379C13.8656 1.50395 14.3522 0.922773 14.5809 0.222267C13.9866 0.566599 13.3303 0.809818 12.6309 0.945547C12.0666 0.36164 11.2622 0 10.3847 0C8.68219 0 7.31156 1.34271 7.31156 2.98877C7.31156 3.22561 7.33219 3.45334 7.38281 3.67014C4.82625 3.54899 2.56406 2.3584 1.04437 0.544737C0.779062 0.992004 0.623438 1.50395 0.623438 2.05506C0.623438 3.08988 1.17188 4.00719 1.98937 4.53826C1.49531 4.52915 1.01063 4.38978 0.6 4.17024C0.6 4.17935 0.6 4.19119 0.6 4.20304C0.6 5.65506 1.66594 6.86113 3.06375 7.13897C2.81344 7.20547 2.54063 7.23735 2.2575 7.23735C2.06063 7.23735 1.86187 7.22642 1.67531 7.18634C2.07375 8.36964 3.20438 9.23958 4.54875 9.26781C3.5025 10.0631 2.17406 10.5422 0.735938 10.5422C0.48375 10.5422 0.241875 10.5313 0 10.5012C1.36219 11.3548 2.97656 11.8421 4.7175 11.8421C10.3763 11.8421 13.47 7.28745 13.47 3.33947C13.47 3.20739 13.4653 3.07986 13.4587 2.95324C14.0691 2.53239 14.5819 2.00678 15 1.40192Z" fill="white"/>
</svg>
