<svg width="0" height="0" class="hidden">
  <symbol fill="none" xmlns="http://www.w3.org/2000/svg" viewBox="0 0 13 13" id="drib">
    <path d="M6.5 0C2.92 0 0 2.921 0 6.5 0 10.08 2.921 13 6.5 13c3.58 0 6.5-2.921 6.5-6.5C13 2.92 10.079 0 6.5 0zm4.409 2.831a5.711 5.711 0 011.328 3.578c-1.017-.238-2.147-.254-3.297-.045-.3.055-.599.124-.896.208a18.212 18.212 0 00-.677-1.598C8.738 4.45 10.223 3.67 10.91 2.83zM6.5.761c1.493 0 2.855.574 3.877 1.512-.398.544-1.534 1.336-3.357 2.018a16.555 16.555 0 00-2.28-3.253A5.713 5.713 0 016.5.762zm-2.515.582c.9.963 1.673 2.039 2.31 3.2-1.897.614-3.816.865-5.395.703a5.76 5.76 0 013.085-3.903zM.762 6.5c0-.169.008-.335.022-.5.348.037.712.055 1.087.055 1.481 0 3.145-.285 4.779-.826.25.51.473 1.036.671 1.574-.637.229-1.257.52-1.84.866-1.427.85-2.47 1.944-2.904 3.015A5.723 5.723 0 01.762 6.5zM6.5 12.238a5.706 5.706 0 01-3.297-1.044c.29-.978 1.268-2.036 2.669-2.87a9.827 9.827 0 011.698-.796c.445 1.399.717 2.876.804 4.396a5.713 5.713 0 01-1.874.314zm2.617-.632A18.435 18.435 0 008.293 7.3c1.234-.34 2.605-.453 3.904-.116a5.752 5.752 0 01-3.08 4.423z" fill="#fff"></path>
  </symbol>
  <symbol fill="none" xmlns="http://www.w3.org/2000/svg" viewBox="0 0 15 15" id="inst">
    <path d="M10.017.79H4.984A4.195 4.195 0 00.79 4.983v5.032a4.195 4.195 0 004.194 4.194h5.033a4.195 4.195 0 004.194-4.194V4.984A4.195 4.195 0 0010.017.789zm2.935 9.226a2.94 2.94 0 01-2.935 2.936H4.984a2.94 2.94 0 01-2.936-2.936V4.984a2.94 2.94 0 012.936-2.936h5.033a2.94 2.94 0 012.935 2.936v5.032z" fill="#fff"></path>
    <path d="M7.5 3.75a3.75 3.75 0 100 7.5 3.75 3.75 0 000-7.5zm0 6.094A2.347 2.347 0 015.156 7.5 2.346 2.346 0 017.5 5.156 2.346 2.346 0 019.844 7.5 2.347 2.347 0 017.5 9.844zm4.031-5.086a.5.5 0 100-1 .5.5 0 000 1z" fill="#fff"></path>
  </symbol>
  <symbol fill="none" xmlns="http://www.w3.org/2000/svg" viewBox="0 0 15 12" id="twit">
    <path d="M15 1.402a6.558 6.558 0 01-1.772.472A2.988 2.988 0 0014.581.222a6.254 6.254 0 01-1.95.724A3.124 3.124 0 0010.385 0C8.682 0 7.312 1.343 7.312 2.989c0 .237.02.464.07.681A8.79 8.79 0 011.045.545c-.265.447-.42.959-.42 1.51A2.97 2.97 0 001.99 4.538 3.105 3.105 0 01.6 4.17v.033c0 1.452 1.066 2.658 2.464 2.936-.25.066-.523.098-.807.098-.196 0-.395-.01-.582-.05a3.094 3.094 0 002.874 2.08 6.294 6.294 0 01-3.813 1.275c-.252 0-.494-.01-.736-.04a8.841 8.841 0 004.718 1.34c5.658 0 8.752-4.555 8.752-8.503 0-.132-.005-.26-.011-.386A6.04 6.04 0 0015 1.402z" fill="#fff"></path>
  </symbol>
  <symbol fill="none" xmlns="http://www.w3.org/2000/svg" viewBox="0 0 24 24" id="github">
    <path d="M12.29 21.499c3.73 0 8.94.09 10.835-3.701.715-1.449.875-3.122.875-4.7h-.001c0-2.073-.575-4.047-1.95-5.651a7.558 7.558 0 00.385-2.385c0-1.064-.24-1.598-.73-2.563-2.24 0-3.69.42-5.39 1.742a17.46 17.46 0 00-4.02-.455c-1.495 0-2.986.154-4.435.495C6.134 2.945 4.684 2.5 2.419 2.5c-.484.965-.729 1.499-.729 2.563 0 .811.125 1.632.385 2.414C.695 9.066 0 11.025 0 13.098c0 1.578.281 3.266 1.01 4.701 1.97 3.835 7.49 3.7 11.28 3.7zm-5.289-9.99c.95 0 1.865.168 2.8.297 3.418.52 5.215-.297 7.31-.297 2.339 0 3.675 1.915 3.675 4.087 0 4.349-4.015 5.012-7.53 5.012h-2.41c-3.5 0-7.52-.667-7.52-5.012 0-2.172 1.334-4.087 3.675-4.087z" fill="#fff"></path>
    <path d="M16.655 18.323c1.29 0 1.835-1.692 1.835-2.727s-.545-2.727-1.835-2.727-1.835 1.692-1.835 2.727.545 2.727 1.835 2.727zm-9.185 0c1.29 0 1.835-1.692 1.835-2.727S8.759 12.87 7.47 12.87s-1.835 1.692-1.835 2.727.545 2.726 1.835 2.726z" fill="#fff"></path>
  </symbol>
</svg>